<?xml version="1.0" encoding="UTF-8" standalone="no"?>
<svg
   id="Layer_1"
   width="138.62mm"
   height="158.24mm"
   viewBox="0 0 392.95 448.54"
   version="1.1"
   sodipodi:docname="Burnside Icon - white RGB.svg"
   inkscape:version="1.2.1 (9c6d41e410, 2022-07-14)"
   xmlns:inkscape="http://www.inkscape.org/namespaces/inkscape"
   xmlns:sodipodi="http://sodipodi.sourceforge.net/DTD/sodipodi-0.dtd"
   xmlns="http://www.w3.org/2000/svg"
   xmlns:svg="http://www.w3.org/2000/svg">
  <sodipodi:namedview
     id="namedview63"
     pagecolor="#ffffff"
     bordercolor="#666666"
     borderopacity="1.0"
     inkscape:showpageshadow="2"
     inkscape:pageopacity="0.0"
     inkscape:pagecheckerboard="0"
     inkscape:deskcolor="#d1d1d1"
     inkscape:document-units="mm"
     showgrid="false"
     inkscape:zoom="1.1161002"
     inkscape:cx="339.57525"
     inkscape:cy="295.67238"
     inkscape:window-width="1920"
     inkscape:window-height="1017"
     inkscape:window-x="-8"
     inkscape:window-y="-8"
     inkscape:window-maximized="1"
     inkscape:current-layer="Layer_1"
     showguides="true" />
  <defs
     id="defs4">
    <style
       id="style2">.cls-1{fill:#fff;stroke-width:0px;}</style>
  </defs>
  <path
     class="cls-1"
     d="M 71.028533,447.04361 V 223.35082 c 0,-7.03228 -2.790804,-13.76061 -7.764525,-18.73433 L 4.6570799,146.00957 c -1.3125079,5.0566 -2.4315937,10.18229 -3.3572575,15.37705 l 56.4792826,56.4793 v 229.17769 z"
     id="path6" />
  <path
     class="cls-1"
     d="m 85.410849,176.52883 c -4.973709,4.97371 -7.764513,11.70204 -7.764513,18.73432 v 7.76452 l 48.770034,-48.77003 -9.36717,-9.36716 z"
     id="path8" />
  <path
     class="cls-1"
     d="m 71.028533,195.26315 c 0,-7.03228 -2.790804,-13.76061 -7.764525,-18.73432 L 11.495937,124.76075 c -1.7684317,4.57306 -3.357258,9.21518 -4.7802928,13.94022 l 64.3128888,64.31288 v -7.76451 z"
     id="path10" />
  <path
     class="cls-1"
     d="m 85.410849,148.42734 c -4.973709,4.97372 -7.764513,11.70205 -7.764513,18.73433 v 7.76451 l 34.719284,-34.71929 -9.36716,-9.36715 -17.601421,17.60142 z"
     id="path12" />
  <path
     class="cls-1"
     d="m 71.028533,167.16167 c 0,-7.03228 -2.790804,-13.76061 -7.764525,-18.73433 L 20.199937,105.36327 c -2.141461,4.15857 -4.144763,8.41386 -5.99609,12.73823 l 56.810864,56.81087 v -7.76453 z"
     id="path14" />
  <path
     class="cls-1"
     d="m 85.410849,204.63031 c -4.973709,4.97371 -7.764513,11.70204 -7.764513,18.73432 v 223.6928 h 13.249416 v -229.1777 l 49.571348,-49.57135 -9.36715,-9.36716 z"
     id="path16" />
  <path
     class="cls-1"
     d="m 87.165469,30.688475 c -3.730282,2.473041 -7.377669,5.084241 -10.928351,7.792152 l 107.763802,107.763803 9.36717,9.36716 v -7.76452 c 0,-3.20528 -0.58027,-6.34149 -1.68554,-9.28426 -1.31251,-3.50924 -3.37108,-6.74215 -6.06517,-9.45006 L 87.179291,30.674659 Z m 86.100521,86.100515 9.36715,9.36717 z"
     id="path18" />
  <path
     class="cls-1"
     d="m 56.259361,55.985337 c -3.122385,3.122388 -6.134244,6.355301 -9.035579,9.684927 L 155.91325,174.35973 180.13248,198.57895 V 447.05743 H 193.3819 V 204.06386 c 0,-7.03228 -2.79081,-13.76061 -7.76452,-18.73432 L 165.28041,164.99257 56.273183,55.985337 Z"
     id="path20" />
  <path
     class="cls-1"
     d="m 207.7504,157.22806 c -4.97371,4.97371 -7.76451,11.70204 -7.76451,18.73431 v 7.76453 l 29.46926,-29.46926 -9.36717,-9.36716 -12.35139,12.35139 z"
     id="path22" />
  <path
     class="cls-1"
     d="m 332.32814,51.384652 c -3.23293,-3.025677 -6.54873,-5.954642 -9.97507,-8.759264 l -55.42927,55.429282 9.36715,9.36716 z"
     id="path24" />
  <path
     class="cls-1"
     d="m 71.000901,42.625388 c -3.426333,2.804622 -6.742151,5.733587 -9.975063,8.759264 l 108.924352,108.924338 23.4179,23.41791 v -7.76453 c 0,-7.03227 -2.79081,-13.7606 -7.76453,-18.73431 l -6.28622,-6.28623 z"
     id="path26" />
  <path
     class="cls-1"
     d="m 199.98589,147.86089 v 7.76453 l 15.41851,-15.41853 -9.28427,-9.28426 c -3.95134,4.73884 -6.13424,10.73493 -6.13424,16.95207 z"
     id="path28" />
  <path
     class="cls-1"
     d="m 317.11686,38.494443 c -3.55069,-2.721727 -7.19807,-5.319111 -10.92836,-7.792152 l -53.31545,53.315452 9.36716,9.367161 54.87665,-54.876645 z"
     id="path30" />
  <path
     class="cls-1"
     d="m 346.13019,65.670264 c -2.90133,-3.329626 -5.92701,-6.562539 -9.03559,-9.684927 l -56.12007,56.120073 9.36717,9.36716 55.80231,-55.802306 z"
     id="path32" />
  <path
     class="cls-1"
     d="m 207.7504,185.32954 c -4.97371,4.97371 -7.76451,11.70204 -7.76451,18.73432 v 242.99357 h 13.24941 v -248.47848 0 c 0,0 30.27058,-30.27057 30.27058,-30.27057 l -9.36716,-9.36716 z"
     id="path34" />
  <path
     class="cls-1"
     d="m 160.54157,1.0396117 c -5.16713,0.9532951 -10.26519,2.1000126 -15.28036,3.4539681 l 37.37193,37.3719352 9.36717,-9.367161 z"
     id="path36" />
  <path
     class="cls-1"
     d="m 238.8223,79.320346 -9.36715,9.367161 76.87151,76.871523 9.36716,9.36715 v -7.76451 c 0,-3.20528 -0.58027,-6.34149 -1.68554,-9.28427 -1.3125,-3.50923 -3.37107,-6.74214 -6.06517,-9.45006 L 238.83612,79.320346 Z"
     id="path38" />
  <path
     class="cls-1"
     d="m 117.49131,14.192322 c -4.31055,1.878959 -8.52439,3.896077 -12.66916,6.065169 l 49.6957,49.695693 9.36717,-9.367161 z"
     id="path40" />
  <path
     class="cls-1"
     d="m 302.4444,447.04361 h 13.24942 V 223.35082 c 0,-7.03228 -2.79081,-13.76061 -7.76452,-18.73433 l -20.33697,-20.33696 -76.87151,-76.87151 -9.36717,9.36716 76.87152,76.87151 24.21923,24.21923 z"
     id="path42" />
  <path
     class="cls-1"
     d="m 322.31162,195.26315 v 7.76452 l 64.31289,-64.31289 c -1.42304,-4.72502 -3.02568,-9.38097 -4.7803,-13.94021 l -51.76807,51.76807 c -4.97372,4.97372 -7.76452,11.70205 -7.76452,18.73433 z"
     id="path44" />
  <path
     class="cls-1"
     d="m 137.98025,6.5797765 c -4.69739,1.4506666 -9.32571,3.0809396 -13.87114,4.8631875 l 44.4733,44.473294 9.36716,-9.367162 z"
     id="path46" />
  <path
     class="cls-1"
     d="m 224.77156,93.371088 -9.36716,9.367162 76.87152,76.87151 23.4179,23.41791 v -7.76452 c 0,-7.03228 -2.79081,-13.76061 -7.76452,-18.73432 l -6.28622,-6.28622 z"
     id="path48" />
  <path
     class="cls-1"
     d="m 330.07614,148.42734 c -4.97372,4.97372 -7.76452,11.70205 -7.76452,18.73433 v 7.76451 l 56.81087,-56.81087 c -1.85132,-4.32436 -3.85463,-8.57965 -5.99609,-12.73823 l -43.06408,43.06408 z"
     id="path50" />
  <path
     class="cls-1"
     d="m 388.68307,146.02338 -58.60693,58.60693 c -4.97372,4.97371 -7.76452,11.70204 -7.76452,18.73432 v 223.6928 h 13.24943 v -229.1777 l 56.47928,-56.47928 c -0.91185,-5.19477 -2.04475,-10.32046 -3.35726,-15.37707 z"
     id="path52" />
  <path
     class="cls-1"
     d="m 177.93575,112.10541 9.36717,9.36716 L 288.518,20.257491 c -4.14477,-2.169092 -8.3586,-4.18621 -12.66916,-6.065169 z"
     id="path54" />
  <line
     class="cls-1"
     x1="173.25218"
     y1="116.78899"
     x2="182.61934"
     y2="126.15616"
     id="line56" />
  <path
     class="cls-1"
     d="m 163.89883,98.05467 9.36716,9.36716 95.97887,-95.978866 C 264.69944,9.6607161 260.07112,8.0304431 255.37372,6.5797765 Z"
     id="path58" />
  <path
     class="cls-1"
     d="m 149.84808,84.003927 9.36716,9.367161 88.89133,-88.8913241 C 243.09141,3.1396243 237.99335,1.979091 232.82622,1.0257957 L 149.8619,83.990111 Z"
     id="path60" />
</svg>
